<svg id="Ebene_1" xmlns="http://www.w3.org/2000/svg" width="300" height="95" viewBox="0 0 300 95"><style>.st0{fill:#fff}</style><path class="st0" d="M295.1 2.2c2.7 0 4.9 2.2 4.9 4.9s-2.2 4.9-4.9 4.9-4.9-2.2-4.9-4.9 2.2-4.9 4.9-4.9m4.2 4.9c0-2.4-1.8-4.2-4-4.2s-4 1.8-4 4.2 1.8 4.2 4 4.2 4-1.8 4-4.2m-6-2.9h2.2c1.3 0 2 .5 2 1.6s-.7 1.5-1.6 1.6l1.6 2.5h-.9L295 7.5h-1V10h-.9V4.2h.2zm1.8 2.5c.7 0 1.5 0 1.5-.9 0-.7-.7-.9-1.3-.9H294v1.8h1.1zM294.9 43.3h-14.6V30.4c0-1.8-.9-2.7-2.5-2.7-.9 0-1.5.2-1.8.5-.4.4-.5 1.1-.5 2V78h-14.4V18.6h14.4v2c.9-.7 2-1.3 3.6-1.6 1.6-.4 3.3-.7 5.3-.7 3.1 0 5.6.9 7.5 2.5 2 1.6 2.9 3.6 2.9 6v16.6h.1zM130.4 43.3H116V30.4c0-1.8-.9-2.7-2.5-2.7-.9 0-1.5.2-1.8.5-.4.4-.5 1.1-.5 2V78H96.6V18.6H111v2c.9-.7 2-1.3 3.6-1.6 1.6-.4 3.3-.7 5.3-.7 3.1 0 5.6.9 7.5 2.5 2 1.6 2.9 3.6 2.9 6v16.6h.1zM243.4 2.9h14.4v10.6h-14.4zM243.4 18.6h14.4v59.5h-14.4zM41.7 2.9h14.4v10.6H41.7zM41.7 18.6h14.4v59.5H41.7zM240.1 78h-12.7v-2.4c-.7 1.3-1.8 2.2-3.1 2.5-1.5.4-3.5.5-6 .5-4.4 0-7.3-.7-9.1-2.4-1.8-1.5-2.7-3.8-2.7-7.1v-12c0-4.7 3.3-8.7 9.6-11.8 6.5-3.1 9.6-5.3 9.6-6.5v-8.7c0-.9-.2-1.6-.5-2.2-.4-.5-1.1-.7-1.8-.7s-1.3.2-1.8.7c-.5.5-.7 1.3-.7 2.2V42h-14V30.2c0-4.4 1.8-7.6 5.3-9.6 2.9-1.6 6.9-2.4 12-2.4s8.9.9 11.5 2.5c3.1 2 4.5 5.3 4.5 10V78zm-14.5-11.1V51.7c-2 .5-3.3 1.1-4 1.8-.7.7-1.1 1.6-1.1 2.7v10.7c0 .9.2 1.6.7 2 .4.4 1.1.7 2 .7.7 0 1.3-.2 1.6-.7.6-.3.8-1 .8-2M203.8 70.6c0 2.4-.9 4.2-2.9 5.8s-4.5 2.4-7.6 2.4c-2 0-3.6-.2-5.3-.5-1.6-.4-2.7-.9-3.6-1.6v18H170v-76h10.9l1.3 2.4c.9-.7 1.8-1.3 2.5-1.6 1.5-.7 3.5-1.1 5.8-1.1 4.2 0 7.5 1.1 10 3.3 2.2 1.8 3.3 4 3.3 6.5v42.4zm-14.6-3.7V30.2c0-1.8-.9-2.7-2.5-2.7-.9 0-1.5.2-1.8.7-.4.5-.5 1.1-.5 2v36.9c0 .9.2 1.5.7 2 .4.4 1.1.7 1.8.7 1.6-.1 2.3-1 2.3-2.9M166.6 66.8c0 4.4-1.8 7.6-5.3 9.6-2.7 1.6-6.7 2.4-11.8 2.4-5.1 0-9.1-.9-11.8-2.5-3.3-2.2-4.9-5.5-4.9-10V30.7c0-4.5 1.6-7.8 4.9-9.8 2.9-1.8 6.7-2.7 12-2.7 5.1 0 8.9.7 11.8 2.4 3.5 2 5.3 5.1 5.3 9.6v22.7h-19.6v13.8c0 .9.2 1.6.5 2.2.4.5 1.1.7 1.8.7.9 0 1.5-.2 1.8-.7.4-.5.5-1.3.5-2.2V54.9h14.4v11.8h.4zm-14.5-23V30.2c0-.9-.2-1.6-.5-2.2s-1.1-.7-1.8-.7-1.3.2-1.8.7c-.5.5-.7 1.3-.7 2.2v13.6h4.8zM93.3 66.8c0 4.4-1.8 7.6-5.3 9.6-2.7 1.6-6.7 2.4-11.8 2.4s-9.1-.9-11.8-2.5c-3.3-2.2-4.9-5.5-4.9-10V30.7c0-4.5 1.6-7.8 4.9-9.8 2.9-1.8 6.9-2.7 12-2.7s9.1.7 11.8 2.4c3.5 2 5.3 5.1 5.3 9.6v36.6h-.2zM78.2 28.2c-.4-.5-1.1-.7-1.8-.7s-1.3.2-1.8.7c-.5.5-.7 1.3-.7 2.2v36.4c0 .9.2 1.6.5 2.2s1.1.7 1.8.7 1.3-.2 1.8-.7c.5-.5.7-1.3.7-2.2V30.4c.1-1.1-.1-1.8-.5-2.2M37.3 40.9c-1.5-2.2-4-3.6-7.5-4.7 3.3-1.3 5.6-3.1 6.9-5.3 1.1-1.6 1.5-3.6 1.5-6.2V14.2c0-4.2-1.6-7.8-4.9-10.4C30.2 1.3 25.8 0 20.2 0H0v78H21.7c5.5 0 9.8-1.6 12.9-4.7 2.7-2.7 4.2-6.5 4.2-10.9V47.3c0-2.5-.4-4.7-1.5-6.4M21.6 65.5c0 .9-.2 2.9-1.8 3.8-.5.2-2.2.4-3.1.4V41.5c1.6 0 2.7.2 3.8.7.4.2.7.5.9 1.1.2.5.4 1.3.4 2.4v19.8h-.2zm0-39.8c0 1.1-.2 2.9-1.8 3.8-.7.4-2.2.4-3.1.4V8.2c1.6 0 2.9.2 3.8.7.4.2.7.5.9 1.1.2.5.4 1.3.4 2.4l-.2 13.3z"/></svg>